<?xml version="1.0" encoding="utf-8"?>
<!-- Generator: Adobe Illustrator 25.0.0, SVG Export Plug-In . SVG Version: 6.00 Build 0)  -->
<svg version="1.1" id="Layer_1" xmlns="http://www.w3.org/2000/svg" xmlns:xlink="http://www.w3.org/1999/xlink" x="0px" y="0px"
	 viewBox="0 0 180 180" style="enable-background:new 0 0 180 180;" xml:space="preserve">
<style type="text/css">
	.st0{fill:#FFDD00;}
	.st1{fill:#FF592C;}
</style>
<g id="Group_333_1_" transform="translate(5.827 9.175)">
	<g id="Group_332_1_" transform="translate(0 4.395)">
		<g id="Group_330_1_" transform="translate(10.313 14.101)">
			<path id="Path_409_1_" class="st0" d="M75.7,110.7c-5.4,0-9.7,4.3-9.7,9.7c0,5.4,4.3,9.7,9.7,9.7c5.4,0,9.7-4.3,9.7-9.7
				c0,0,0,0,0,0C85.4,115,81.1,110.7,75.7,110.7z"/>
			<path id="Path_410_1_" class="st0" d="M111.4,110.7c-5.4,0-9.7,4.3-9.7,9.7c0,5.4,4.3,9.7,9.7,9.7c5.4,0,9.7-4.3,9.7-9.7
				c0,0,0,0,0,0C121.1,115,116.8,110.7,111.4,110.7z"/>
		</g>
		<g id="Group_331_1_">
			<path id="Path_411_1_" class="st0" d="M136.2,117.1H71.3c-2.4,0-4.6-1.5-5.5-3.8L40.5,48.2h-23c-3.3-0.1-5.8-2.9-5.7-6.1
				c0.1-3.1,2.6-5.6,5.7-5.7h27.1c2.4,0,4.6,1.5,5.5,3.8l25.2,65.1H132l13.1-34.8c1.2-3,4.7-4.5,7.7-3.3c2.9,1.2,4.4,4.5,3.4,7.4
				l-14.5,38.6C140.8,115.5,138.6,117.1,136.2,117.1z"/>
		</g>
	</g>
	<path id="Path_412_1_" class="st0" d="M127.7,36.5H110V18.9c0.1-3.1-2.4-5.8-5.5-5.9c-3.1-0.1-5.8,2.4-5.9,5.5c0,0.1,0,0.3,0,0.4
		v17.6H81c-3.1-0.1-5.8,2.4-5.9,5.5c-0.1,3.1,2.4,5.8,5.5,5.9c0.1,0,0.3,0,0.4,0h17.6v17.6c-0.1,3.1,2.4,5.8,5.5,5.9
		s5.8-2.4,5.9-5.5c0-0.1,0-0.3,0-0.4V47.9h17.7c3.1-0.1,5.6-2.7,5.5-5.9C133.1,39,130.7,36.6,127.7,36.5z"/>
</g>
<circle class="st1" cx="156.3" cy="24.1" r="17.4"/>
</svg>
