<?xml version="1.0" encoding="utf-8"?>
<!-- Generator: Adobe Illustrator 25.0.0, SVG Export Plug-In . SVG Version: 6.00 Build 0)  -->
<svg version="1.1" id="Layer_1" xmlns="http://www.w3.org/2000/svg" xmlns:xlink="http://www.w3.org/1999/xlink" x="0px" y="0px"
	 viewBox="0 0 180 180" style="enable-background:new 0 0 180 180;" xml:space="preserve">
<style type="text/css">
	.st0{fill:#FFDD00;}
</style>
<g id="Group_338">
	<g id="Group_337" transform="translate(4.494 4.494)">
		<path id="Path_416" class="st0" d="M38.7,48.4L38.7,48.4c6.8,0,12.3-5.5,12.3-12.2c0-3.3-1.3-6.4-3.6-8.7
			c-2.3-2.2-5.4-3.5-8.7-3.5l0,0c-6.7-0.1-12.2,5.2-12.3,11.9c0,3.3,1.3,6.5,3.6,8.9C32.3,47.1,35.5,48.4,38.7,48.4z"/>
		<path id="Path_417" class="st0" d="M137.5,122.8c-6.7,0-12.2,5.4-12.2,12.1c0,3.3,1.3,6.4,3.6,8.7l0,0c4.7,4.9,12.5,5,17.3,0.3
			c4.9-4.7,5-12.5,0.3-17.3C144.1,124.1,140.9,122.7,137.5,122.8z"/>
		<path id="Path_418" class="st0" d="M18.7,110.3l6.6-2.5c-6-16.9-5-35.6,3-51.7l-6.3-3.2C13.2,70.8,12,91.5,18.7,110.3L18.7,110.3z
			"/>
		<path id="Path_419" class="st0" d="M88.1,18.9c21.6,0.2,41.9,10.6,54.6,28.1c0.5,0.5,0.9,1.1,1.3,1.5V20.6h-7v9.9l-1.4-1.2
			c-13.3-11.3-30.1-17.4-47.5-17.4c-11.3,0-22.5,2.6-32.6,7.6l3.2,6.3C67.8,21.2,77.9,18.9,88.1,18.9z"/>
		<path id="Path_420" class="st0" d="M157.5,60.7l-6.6,2.5c6,16.9,5,35.6-3,51.7l6.3,3.2C163,100.2,164.2,79.5,157.5,60.7
			L157.5,60.7z"/>
		<path id="Path_421" class="st0" d="M88.1,152.1c-21.6-0.2-41.9-10.6-54.6-28.1c-0.5-0.5-0.9-1.1-1.3-1.5v27.9h7v-9.9l1.4,1.2
			c13.3,11.2,30.1,17.4,47.5,17.4c11.3,0,22.5-2.6,32.6-7.6l-3.2-6.3C108.4,149.8,98.3,152.1,88.1,152.1z"/>
		<path id="Path_422" class="st0" d="M110.8,126.8c15.1-8.2,24.5-24.1,24.5-41.3c0-1.1-0.1-2.2-0.1-3.5H123c-1.9,0-3.5,1.6-3.5,3.5
			c0,7.7-6.2,13.9-13.9,13.9h-8.7c-1.9-0.1-3.6,1.5-3.6,3.4s1.5,3.6,3.4,3.6c0.1,0,0.2,0,0.3,0c7.7,0,13.9,6.2,13.9,13.9V126.8z"/>
		<path id="Path_423" class="st0" d="M61.9,89c1.9,0,3.5-1.6,3.5-3.5c0-7.7,6.2-13.9,13.9-13.9c1.9,0,3.5-1.6,3.5-3.5
			c0-1.9-1.6-3.5-3.5-3.5H75c-8.6,0-16.1-6.1-17.8-14.6c-10.3,8.9-16.3,21.9-16.2,35.6c0,1.1,0,2.2,0.2,3.5L61.9,89z"/>
		<path id="Path_424" class="st0" d="M75.9,85.5c0,7.7-6.2,13.9-13.9,13.9H43.1c7.4,24.3,32.8,38.3,57.3,31.6v-10.6
			c0-1.9-1.6-3.5-3.5-3.5c-7.7,0-13.9-6.2-13.9-13.9S89.1,89,96.8,89h8.7c1.9,0,3.5-1.6,3.5-3.5c0-7.7,6.2-13.9,13.9-13.9h10.1
			c-6.2-19.7-24.4-33.2-45-33.3c-7,0-13.9,1.6-20.1,4.6c-0.5,1-0.8,2.2-0.8,3.3c0,4.4,3.5,7.9,7.9,7.9h4.4c7.7-0.1,14.1,6,14.2,13.7
			s-6,14.1-13.7,14.2c-0.2,0-0.4,0-0.5,0C77.4,82,75.9,83.6,75.9,85.5z"/>
	</g>
</g>
</svg>
