<?xml version="1.0" encoding="utf-8"?>
<!-- Generator: Adobe Illustrator 25.0.0, SVG Export Plug-In . SVG Version: 6.00 Build 0)  -->
<svg version="1.1" id="Layer_1" xmlns="http://www.w3.org/2000/svg" xmlns:xlink="http://www.w3.org/1999/xlink" x="0px" y="0px"
	 viewBox="0 0 180 180" style="enable-background:new 0 0 180 180;" xml:space="preserve">
<style type="text/css">
	.st0{fill:#FFDD00;}
</style>
<g>
	<path id="Path_413" class="st0" d="M89.9,31.1c13.2,0,23.9,10.7,23.9,23.9s-10.7,23.9-23.9,23.9C76.7,78.9,66,68.2,66,55
		c0,0,0,0,0,0C66,41.8,76.7,31.1,89.9,31.1 M89.9,22.2c-18.1,0-32.8,14.7-32.8,32.8c0,18.1,14.7,32.8,32.8,32.8
		c18.1,0,32.8-14.7,32.8-32.8C122.7,36.9,108,22.2,89.9,22.2C89.9,22.2,89.9,22.2,89.9,22.2z"/>
	<path id="Path_414" class="st0" d="M89.9,88.2c21.4-0.1,40.3,13.8,46.7,34.2c2,6.5-0.8,13.5-6.8,16.8c-12.1,6.4-25.6,9.8-39.3,9.7
		c-14.2,0-28.1-3.6-40.5-10.4c-5.9-3.3-8.7-10.4-6.6-16.9C50.1,101.6,68.8,88.1,89.9,88.2 M89.9,79.2c-24.9,0-47.1,15.9-55,39.6
		c-3.5,10.6,1,22.2,10.8,27.6c27.5,15,60.6,15.3,88.3,0.7c9.8-5.3,14.5-16.8,11.1-27.4C137.5,95.6,115.2,79.2,89.9,79.2L89.9,79.2z"
		/>
</g>
</svg>
